<svg width="20" height="20" viewBox="0 0 20 20" fill="none" xmlns="http://www.w3.org/2000/svg">
<mask id="mask0_1062_624" style="mask-type:alpha" maskUnits="userSpaceOnUse" x="0" y="0" width="20" height="20">
<rect width="20" height="20" fill="#D9D9D9"/>
</mask>
<g mask="url(#mask0_1062_624)">
<path d="M13.2491 9.48311L10.1883 6.42223C10.1103 6.34424 10.0553 6.26163 10.0232 6.17438C9.99117 6.08713 9.97515 5.99365 9.97515 5.89394C9.97515 5.79422 9.99117 5.70108 10.0232 5.61454C10.0553 5.52802 10.1103 5.44575 10.1883 5.36775L13.2491 2.3069C13.3271 2.22891 13.4098 2.17389 13.497 2.14183C13.5843 2.10978 13.6777 2.09375 13.7775 2.09375C13.8772 2.09375 13.9703 2.10978 14.0568 2.14183C14.1434 2.17389 14.2256 2.22891 14.3036 2.3069L17.3645 5.36775C17.4425 5.44575 17.4975 5.52838 17.5295 5.61563C17.5616 5.70288 17.5776 5.79636 17.5776 5.89606C17.5776 5.99579 17.5616 6.08891 17.5295 6.17544C17.4975 6.26198 17.4425 6.34424 17.3645 6.42223L14.3036 9.48311C14.2256 9.56109 14.143 9.61611 14.0558 9.64817C13.9685 9.68021 13.875 9.69623 13.7753 9.69623C13.6756 9.69623 13.5825 9.68021 13.4959 9.64817C13.4094 9.61611 13.3271 9.56109 13.2491 9.48311ZM3.21875 7.86294V3.53606C3.21875 3.32265 3.29093 3.14376 3.43529 2.9994C3.57965 2.85503 3.75854 2.78285 3.97196 2.78285H8.29883C8.51224 2.78285 8.69112 2.85503 8.83548 2.9994C8.97984 3.14376 9.05202 3.32265 9.05202 3.53606V7.86294C9.05202 8.07634 8.97984 8.25522 8.83548 8.39958C8.69112 8.54395 8.51224 8.61613 8.29883 8.61613H3.97196C3.75854 8.61613 3.57965 8.54395 3.43529 8.39958C3.29093 8.25522 3.21875 8.07634 3.21875 7.86294ZM11.0392 15.6834V11.3565C11.0392 11.1431 11.1114 10.9642 11.2558 10.8199C11.4001 10.6755 11.579 10.6033 11.7924 10.6033H16.1193C16.3327 10.6033 16.5116 10.6755 16.656 10.8199C16.8003 10.9642 16.8725 11.1431 16.8725 11.3565V15.6834C16.8725 15.8968 16.8003 16.0757 16.656 16.2201C16.5116 16.3644 16.3327 16.4366 16.1193 16.4366H11.7924C11.579 16.4366 11.4001 16.3644 11.2558 16.2201C11.1114 16.0757 11.0392 15.8968 11.0392 15.6834ZM3.21875 15.6834V11.3565C3.21875 11.1431 3.29093 10.9642 3.43529 10.8199C3.57965 10.6755 3.75854 10.6033 3.97196 10.6033H8.29883C8.51224 10.6033 8.69112 10.6755 8.83548 10.8199C8.97984 10.9642 9.05202 11.1431 9.05202 11.3565V15.6834C9.05202 15.8968 8.97984 16.0757 8.83548 16.2201C8.69112 16.3644 8.51224 16.4366 8.29883 16.4366H3.97196C3.75854 16.4366 3.57965 16.3644 3.43529 16.2201C3.29093 16.0757 3.21875 15.8968 3.21875 15.6834ZM4.46873 7.36617H7.80206V4.03283H4.46873V7.36617ZM13.7972 8.27L16.1514 5.91583L13.7972 3.56167L11.443 5.91583L13.7972 8.27ZM12.2892 15.1866H15.6225V11.8533H12.2892V15.1866ZM4.46873 15.1866H7.80206V11.8533H4.46873V15.1866Z" fill="#56616B"/>
</g>
</svg>
