<svg width="20" height="20" viewBox="0 0 20 20" fill="none" xmlns="http://www.w3.org/2000/svg">
<mask id="mask0_1062_644" style="mask-type:alpha" maskUnits="userSpaceOnUse" x="0" y="0" width="20" height="20">
<rect width="20" height="20" fill="#D9D9D9"/>
</mask>
<g mask="url(#mask0_1062_644)">
<path d="M5.83592 11.4609H10.8359C11.0133 11.4609 11.1618 11.4011 11.2814 11.2814C11.4011 11.1618 11.4609 11.0133 11.4609 10.8359C11.4609 10.6586 11.4011 10.5101 11.2814 10.3904C11.1618 10.2708 11.0133 10.2109 10.8359 10.2109H5.83592C5.65857 10.2109 5.51007 10.2708 5.39042 10.3904C5.27076 10.5101 5.21094 10.6586 5.21094 10.8359C5.21094 11.0133 5.27076 11.1618 5.39042 11.2814C5.51007 11.4011 5.65857 11.4609 5.83592 11.4609ZM5.83592 8.9609H14.1693C14.3466 8.9609 14.4951 8.90107 14.6148 8.78142C14.7344 8.66176 14.7942 8.51326 14.7942 8.33592C14.7942 8.15857 14.7344 8.01007 14.6148 7.89042C14.4951 7.77077 14.3466 7.71094 14.1693 7.71094H5.83592C5.65857 7.71094 5.51007 7.77077 5.39042 7.89042C5.27076 8.01007 5.21094 8.15857 5.21094 8.33592C5.21094 8.51326 5.27076 8.66176 5.39042 8.78142C5.51007 8.90107 5.65857 8.9609 5.83592 8.9609ZM5.83592 6.4609H14.1693C14.3466 6.4609 14.4951 6.40107 14.6148 6.28142C14.7344 6.16176 14.7942 6.01326 14.7942 5.83592C14.7942 5.65857 14.7344 5.51007 14.6148 5.39042C14.4951 5.27077 14.3466 5.21094 14.1693 5.21094H5.83592C5.65857 5.21094 5.51007 5.27077 5.39042 5.39042C5.27076 5.51007 5.21094 5.65857 5.21094 5.83592C5.21094 6.01326 5.27076 6.16176 5.39042 6.28142C5.51007 6.40107 5.65857 6.4609 5.83592 6.4609ZM5.03465 14.5859L3.3664 16.2541C3.12922 16.4913 2.85651 16.545 2.54829 16.4152C2.24006 16.2854 2.08594 16.0517 2.08594 15.7141V3.59236C2.08594 3.17141 2.23177 2.8151 2.52344 2.52344C2.8151 2.23177 3.17141 2.08594 3.59235 2.08594H16.4128C16.8338 2.08594 17.1901 2.23177 17.4817 2.52344C17.7734 2.8151 17.9192 3.17141 17.9192 3.59236V13.0795C17.9192 13.5004 17.7734 13.8567 17.4817 14.1484C17.1901 14.4401 16.8338 14.5859 16.4128 14.5859H5.03465ZM4.5026 13.3359H16.4128C16.4769 13.3359 16.5357 13.3092 16.5891 13.2558C16.6425 13.2024 16.6693 13.1436 16.6693 13.0795V3.59236C16.6693 3.52824 16.6425 3.46947 16.5891 3.41604C16.5357 3.36263 16.4769 3.33592 16.4128 3.33592H3.59235C3.52824 3.33592 3.46947 3.36263 3.41604 3.41604C3.36263 3.46947 3.33592 3.52824 3.33592 3.59236V14.4898L4.5026 13.3359Z" fill="#56616B"/>
</g>
</svg>
