<svg width="20" height="20" viewBox="0 0 20 20" fill="none" xmlns="http://www.w3.org/2000/svg">
<mask id="mask0_1062_618" style="mask-type:alpha" maskUnits="userSpaceOnUse" x="0" y="0" width="20" height="20">
<rect width="20" height="20" fill="#C4C4C4"/>
</mask>
<g mask="url(#mask0_1062_618)">
<path d="M1.74219 14.1219C1.74219 13.7034 1.84855 13.333 2.06127 13.0105C2.27401 12.688 2.56348 12.4358 2.92969 12.2537C3.70745 11.875 4.48829 11.5825 5.27221 11.376C6.05613 11.1695 6.91443 11.0663 7.84713 11.0663C8.77982 11.0663 9.63639 11.1695 10.4168 11.376C11.1973 11.5825 11.9782 11.875 12.7596 12.2537C13.1251 12.437 13.4141 12.6897 13.6268 13.0119C13.8393 13.3341 13.9456 13.7042 13.9456 14.1224V14.6929C13.9456 15.0052 13.8308 15.2802 13.601 15.518C13.3712 15.7558 13.0921 15.8747 12.7638 15.8747H2.92404C2.59569 15.8747 2.31663 15.7598 2.08685 15.5301C1.85708 15.3003 1.74219 15.0212 1.74219 14.6929V14.1219ZM17.0755 15.8747H15.2333C15.3268 15.6947 15.3993 15.5054 15.4509 15.3069C15.5024 15.1084 15.5282 14.9037 15.5282 14.6929V14.0879C15.5282 13.5448 15.4048 13.0273 15.158 12.5353C14.9113 12.0433 14.5488 11.6277 14.0707 11.2883C14.6001 11.3743 15.1034 11.4998 15.5808 11.6648C16.0582 11.8298 16.5174 12.0286 16.9585 12.261C17.3708 12.4779 17.6904 12.7387 17.9172 13.0435C18.1439 13.3483 18.2573 13.6802 18.2573 14.0391V14.6904C18.2573 15.0211 18.1417 15.3012 17.9105 15.5306C17.6793 15.76 17.401 15.8747 17.0755 15.8747ZM7.84713 9.76417C7.06622 9.76417 6.40172 9.49012 5.8536 8.94202C5.30551 8.39391 5.03146 7.7294 5.03146 6.9485C5.03146 6.16758 5.30551 5.50308 5.8536 4.95498C6.40172 4.40687 7.06622 4.13281 7.84713 4.13281C8.62803 4.13281 9.29254 4.40687 9.84065 4.95498C10.3887 5.50308 10.6628 6.16758 10.6628 6.9485C10.6628 7.7294 10.3887 8.39391 9.84065 8.94202C9.29254 9.49012 8.62803 9.76417 7.84713 9.76417ZM14.7397 6.93956C14.7397 7.71429 14.4656 8.377 13.9175 8.92771C13.3694 9.4784 12.7049 9.75375 11.924 9.75375C11.8455 9.75375 11.7412 9.74415 11.6113 9.72496C11.4813 9.70576 11.3743 9.68465 11.2902 9.6616C11.6148 9.28202 11.8636 8.86038 12.0365 8.39667C12.2094 7.93296 12.2958 7.44817 12.2958 6.94229C12.2958 6.43828 12.2069 5.95488 12.029 5.49208C11.8511 5.02928 11.6048 4.60476 11.2902 4.21854C11.3944 4.18008 11.5007 4.15618 11.6091 4.14683C11.7175 4.13749 11.8225 4.13281 11.924 4.13281C12.7049 4.13281 13.3694 4.40764 13.9175 4.95729C14.4656 5.50694 14.7397 6.1677 14.7397 6.93956ZM2.90802 14.7089H12.7798V14.1242C12.7798 13.9467 12.7363 13.7897 12.6492 13.6532C12.5621 13.5167 12.4219 13.3964 12.2285 13.2922C11.5466 12.9429 10.8501 12.6788 10.1389 12.5001C9.42779 12.3215 8.66445 12.2321 7.8489 12.2321C7.03099 12.2321 6.26533 12.3215 5.5519 12.5001C4.83847 12.6788 4.14094 12.9429 3.45931 13.2922C3.26326 13.3964 3.12236 13.517 3.03663 13.654C2.95089 13.791 2.90802 13.9474 2.90802 14.1232V14.7089ZM7.84583 8.59833C8.30075 8.59833 8.68967 8.43731 9.01258 8.11525C9.3355 7.7932 9.49696 7.40471 9.49696 6.94979C9.49696 6.49486 9.33593 6.10594 9.01388 5.78302C8.69182 5.4601 8.30333 5.29865 7.84842 5.29865C7.3935 5.29865 7.00458 5.45967 6.68167 5.78173C6.35875 6.10378 6.19729 6.49228 6.19729 6.94721C6.19729 7.40212 6.35832 7.79104 6.68038 8.11396C7.00243 8.43688 7.39092 8.59833 7.84583 8.59833Z" fill="#56616B"/>
</g>
</svg>
