<svg width="20" height="20" viewBox="0 0 20 20" fill="none" xmlns="http://www.w3.org/2000/svg">
<mask id="mask0_1062_600" style="mask-type:alpha" maskUnits="userSpaceOnUse" x="0" y="0" width="20" height="20">
<rect width="20" height="20" fill="#D9D9D9"/>
</mask>
<g mask="url(#mask0_1062_600)">
<path d="M4.71812 16.1125H7.93769V11.6029C7.93769 11.4343 7.99421 11.2934 8.10725 11.1804C8.22029 11.0673 8.36115 11.0108 8.52983 11.0108H11.4785C11.6361 11.0108 11.7718 11.0673 11.8856 11.1804C11.9993 11.2934 12.0562 11.4343 12.0562 11.6029V16.1125H15.2758V8.3086C15.2758 8.26587 15.2664 8.22714 15.2478 8.19242C15.2291 8.15769 15.2037 8.12698 15.1716 8.10027L10.1492 4.32892C10.1065 4.29686 10.0557 4.28083 9.99696 4.28083C9.93819 4.28083 9.88744 4.29686 9.84471 4.32892L4.82229 8.10027C4.79024 8.12698 4.76486 8.15769 4.74617 8.19242C4.72747 8.22714 4.71812 8.26587 4.71812 8.3086V16.1125ZM3.80469 16.1125V8.31608C3.80469 8.12465 3.8433 7.94864 3.92052 7.78804C3.99774 7.62746 4.11618 7.49204 4.27583 7.38179L9.29825 3.59496C9.50321 3.4379 9.73553 3.35938 9.99523 3.35938C10.2549 3.35938 10.4884 3.4379 10.6957 3.59496L15.7181 7.38179C15.8777 7.49204 15.9962 7.62746 16.0734 7.78804C16.1506 7.94864 16.1892 8.12465 16.1892 8.31608V16.1125C16.1892 16.3608 16.0991 16.5751 15.9187 16.7555C15.7384 16.9358 15.5241 17.026 15.2758 17.026H11.7349C11.5663 17.026 11.4254 16.9695 11.3124 16.8564C11.1993 16.7434 11.1428 16.6025 11.1428 16.4338V11.9242H8.85112V16.4338C8.85112 16.6025 8.7944 16.7434 8.68094 16.8564C8.56748 16.9695 8.43217 17.026 8.275 17.026H4.71175C4.46833 17.026 4.2563 16.9358 4.07565 16.7555C3.89501 16.5751 3.80469 16.3608 3.80469 16.1125Z" fill="#56616B"/>
</g>
</svg>
