<svg width="24" height="24" viewBox="0 0 24 24" fill="none" xmlns="http://www.w3.org/2000/svg">
<mask id="mask0_1062_662" style="mask-type:alpha" maskUnits="userSpaceOnUse" x="0" y="0" width="24" height="24">
<rect width="24" height="24" fill="#D9D9D9"/>
</mask>
<g mask="url(#mask0_1062_662)">
<path d="M4 17.2766C3.85 17.2766 3.72933 17.2266 3.638 17.1266C3.546 17.0266 3.5 16.9099 3.5 16.7766C3.5 16.6266 3.546 16.5059 3.638 16.4146C3.72933 16.3226 3.85 16.2766 4 16.2766H20C20.15 16.2766 20.271 16.3226 20.363 16.4146C20.4543 16.5059 20.5 16.6266 20.5 16.7766C20.5 16.9099 20.4543 17.0266 20.363 17.1266C20.271 17.2266 20.15 17.2766 20 17.2766H4ZM4 12.5016C3.85 12.5016 3.72933 12.4516 3.638 12.3516C3.546 12.2516 3.5 12.1349 3.5 12.0016C3.5 11.8516 3.546 11.7306 3.638 11.6386C3.72933 11.5472 3.85 11.5016 4 11.5016H20C20.15 11.5016 20.271 11.5516 20.363 11.6516C20.4543 11.7516 20.5 11.8682 20.5 12.0016C20.5 12.1516 20.4543 12.2726 20.363 12.3646C20.271 12.4559 20.15 12.5016 20 12.5016H4ZM4 7.72656C3.85 7.72656 3.72933 7.68056 3.638 7.58856C3.546 7.49723 3.5 7.37656 3.5 7.22656C3.5 7.09323 3.546 6.97656 3.638 6.87656C3.72933 6.77656 3.85 6.72656 4 6.72656H20C20.15 6.72656 20.271 6.77656 20.363 6.87656C20.4543 6.97656 20.5 7.09323 20.5 7.22656C20.5 7.37656 20.4543 7.49723 20.363 7.58856C20.271 7.68056 20.15 7.72656 20 7.72656H4Z" fill="#56616B"/>
</g>
</svg>
