<svg width="20" height="20" viewBox="0 0 20 20" fill="none" xmlns="http://www.w3.org/2000/svg">
<mask id="mask0_1062_638" style="mask-type:alpha" maskUnits="userSpaceOnUse" x="0" y="0" width="20" height="20">
<rect width="20" height="20" fill="#C4C4C4"/>
</mask>
<g mask="url(#mask0_1062_638)">
<path d="M4.375 15.7398C4.19792 15.7398 4.04948 15.6798 3.92969 15.56C3.8099 15.4402 3.75 15.2917 3.75 15.1145C3.75 14.9373 3.8099 14.7889 3.92969 14.6693C4.04948 14.5496 4.19792 14.4898 4.375 14.4898H5.25642V8.27181C5.25642 7.15109 5.6023 6.16017 6.29406 5.29906C6.98584 4.43795 7.87393 3.88721 8.95833 3.64683V3.1276C8.95833 2.83826 9.05951 2.59231 9.26188 2.38977C9.46424 2.18722 9.70996 2.08594 9.99904 2.08594C10.2881 2.08594 10.5342 2.18722 10.7371 2.38977C10.9401 2.59231 11.0416 2.83826 11.0416 3.1276V3.64683C12.126 3.88721 13.0141 4.43795 13.7059 5.29906C14.3977 6.16017 14.7435 7.15109 14.7435 8.27181V14.4898H15.625C15.802 14.4898 15.9505 14.5497 16.0703 14.6695C16.1901 14.7894 16.25 14.9379 16.25 15.115C16.25 15.2922 16.1901 15.4406 16.0703 15.5603C15.9505 15.6799 15.802 15.7398 15.625 15.7398H4.375ZM9.99856 18.0795C9.58391 18.0795 9.22942 17.932 8.93508 17.637C8.64075 17.342 8.49358 16.9874 8.49358 16.5731H11.5064C11.5064 16.9887 11.3587 17.3436 11.0635 17.638C10.7682 17.9323 10.4132 18.0795 9.99856 18.0795ZM6.50638 14.4898H13.4936V8.27181C13.4936 7.30706 13.1525 6.48361 12.4703 5.80146C11.7882 5.11929 10.9647 4.77821 9.99998 4.77821C9.03523 4.77821 8.21178 5.11929 7.52963 5.80146C6.84746 6.48361 6.50638 7.30706 6.50638 8.27181V14.4898Z" fill="#56616B"/>
</g>
</svg>
