<svg width="36" height="36" viewBox="0 0 36 36" fill="none" xmlns="http://www.w3.org/2000/svg">

  <style type="text/css">
  #dash { 
    stroke: #000; 
    stroke-width: 0.4;
    fill: none;
    stroke-dasharray: 200;
    stroke-dashoffset: 100;
    animation: dash 7s linear alternate infinite;
  }

          
  @keyframes dash {
    from {
      stroke-dashoffset: 200;
    }
    to {
      stroke-dashoffset: 0;
    }
  }
  </style>
<path  id="dash" d="M29.0847 12.5474H24.3015C24.0724 12.5474 23.8526 12.4563 23.6906 12.2943C23.5285 12.1323 23.4375 11.9125 23.4375 11.6834V6.95775C23.4375 6.7286 23.5285 6.50884 23.6906 6.34681C23.8526 6.18478 24.0724 6.09375 24.3015 6.09375H26.1783C28.2603 6.09375 29.9487 7.78096 29.9487 9.86296V11.6834C29.9487 11.9125 29.8577 12.1323 29.6956 12.2943C29.5336 12.4563 29.3138 12.5474 29.0847 12.5474Z" fill="#131316"/>
<path id="dash" d="M6.0625 26.1488V15.5984C6.0625 15.4849 6.08485 15.3726 6.12827 15.2677C6.17169 15.1629 6.23533 15.0677 6.31556 14.9874C6.39579 14.9072 6.49104 14.8436 6.59586 14.8001C6.70069 14.7567 6.81304 14.7344 6.9265 14.7344H11.6833C11.9124 14.7344 12.1322 14.8254 12.2942 14.9874C12.4563 15.1495 12.5473 15.3692 12.5473 15.5984V29.0552C12.5473 29.2843 12.4563 29.5041 12.2942 29.6661C12.1322 29.8281 11.9124 29.9192 11.6833 29.9192H9.8329C7.7509 29.9192 6.0625 28.2308 6.0625 26.1488Z" fill="#131316"/>
<path d="M14.75 26.1488V15.5984C14.75 15.3692 14.841 15.1495 15.0031 14.9874C15.1651 14.8254 15.3849 14.7344 15.614 14.7344H20.3708C20.5999 14.7344 20.8197 14.8254 20.9817 14.9874C21.1438 15.1495 21.2348 15.3692 21.2348 15.5984V29.0552C21.2348 29.2843 21.1438 29.5041 20.9817 29.6661C20.8197 29.8281 20.5999 29.9192 20.3708 29.9192H18.5204C16.4384 29.9192 14.75 28.2308 14.75 26.1488Z" fill="#131316"/>
<path  id="dash" d="M23.4375 26.1488V15.5984C23.4375 15.3692 23.5285 15.1495 23.6906 14.9874C23.8526 14.8254 24.0723 14.7344 24.3015 14.7344H29.0582C29.2874 14.7344 29.5071 14.8254 29.6692 14.9874C29.8312 15.1495 29.9222 15.3692 29.9222 15.5984V29.0552C29.9222 29.2843 29.8312 29.5041 29.6692 29.6661C29.5071 29.8281 29.2874 29.9192 29.0582 29.9192H27.2078C25.1259 29.9192 23.4375 28.2308 23.4375 26.1488Z" fill="#131316"/>
<path id="dash" d="M17.5447 6.08772L6.92109 6.07813C6.69215 6.07812 6.47257 6.16899 6.31057 6.33076C6.14858 6.49253 6.05741 6.71199 6.05709 6.94093L6.05469 8.83812C6.05349 10.8769 7.70469 12.5329 9.74468 12.5341L20.3683 12.5449C20.5975 12.5449 20.8174 12.4539 20.9796 12.2919C21.1419 12.1299 21.2331 11.9102 21.2335 11.6809V9.78492C21.2371 7.74493 19.5847 6.09012 17.5447 6.08772Z" fill="#131316"/>
</svg>
