<svg width="20" height="20" viewBox="0 0 20 20" fill="none" xmlns="http://www.w3.org/2000/svg">
<mask id="mask0_1060_2131" style="mask-type:alpha" maskUnits="userSpaceOnUse" x="0" y="0" width="20" height="20">
<rect width="20" height="20" fill="#C4C4C4"/>
</mask>
<g mask="url(#mask0_1060_2131)">
<path d="M9.99575 13.0211C9.87524 13.0211 9.76306 13.0019 9.65923 12.9634C9.55538 12.925 9.45666 12.8589 9.36308 12.7653L4.86885 8.27112C4.73039 8.13267 4.65955 7.95864 4.65635 7.74902C4.65314 7.53941 4.72397 7.36217 4.86885 7.2173C5.01372 7.07243 5.18935 7 5.39575 7C5.60215 7 5.77779 7.07243 5.92265 7.2173L9.99575 11.2904L14.0689 7.2173C14.2073 7.07885 14.3813 7.00802 14.591 7.0048C14.8006 7.0016 14.9778 7.07243 15.1227 7.2173C15.2675 7.36217 15.34 7.53781 15.34 7.74422C15.34 7.95062 15.2675 8.12626 15.1227 8.27112L10.6284 12.7653C10.5348 12.8589 10.4361 12.925 10.3323 12.9634C10.2284 13.0019 10.1163 13.0211 9.99575 13.0211Z" fill="#131316"/>
</g>
</svg>
