<svg width="20" height="20" viewBox="0 0 20 20" fill="none" xmlns="http://www.w3.org/2000/svg">
<mask id="mask0_1060_2137" style="mask-type:alpha" maskUnits="userSpaceOnUse" x="0" y="0" width="20" height="20">
<rect width="20" height="20" fill="#C4C4C4"/>
</mask>
<g mask="url(#mask0_1060_2137)">
<path d="M9.9974 12.6875L7.03906 9.75L7.64323 9.14583L9.58073 11.0833V3.875H10.4141V11.0833L12.3516 9.14583L12.9557 9.75L9.9974 12.6875ZM5.51823 15.8333C5.12934 15.8333 4.80656 15.705 4.5499 15.4483C4.29267 15.1911 4.16406 14.8681 4.16406 14.4792V12.5H4.9974V14.4792C4.9974 14.6181 5.04962 14.7394 5.15406 14.8433C5.25795 14.9478 5.37934 15 5.51823 15H14.4766C14.6155 15 14.7368 14.9478 14.8407 14.8433C14.9452 14.7394 14.9974 14.6181 14.9974 14.4792V12.5H15.8307V14.4792C15.8307 14.8681 15.7024 15.1911 15.4457 15.4483C15.1885 15.705 14.8655 15.8333 14.4766 15.8333H5.51823Z" fill="#131316"/>
</g>
</svg>
