<svg width="20" height="20" viewBox="0 0 20 20" fill="none" xmlns="http://www.w3.org/2000/svg">
<mask id="mask0_1060_2167" style="mask-type:alpha" maskUnits="userSpaceOnUse" x="0" y="0" width="20" height="20">
<rect width="20" height="20" fill="#C4C4C4"/>
</mask>
<g mask="url(#mask0_1060_2167)">
<path d="M10.0029 13.9609C10.18 13.9609 10.3284 13.901 10.4481 13.7812C10.5677 13.6614 10.6276 13.513 10.6276 13.3359V9.79423C10.6276 9.61716 10.5676 9.46873 10.4478 9.34894C10.328 9.22915 10.1795 9.16925 10.0023 9.16925C9.82515 9.16925 9.67674 9.22915 9.55708 9.34894C9.43743 9.46873 9.3776 9.61716 9.3776 9.79423V13.3359C9.3776 13.513 9.43752 13.6614 9.55735 13.7812C9.6772 13.901 9.8257 13.9609 10.0029 13.9609ZM10.0026 7.74298C10.1933 7.74298 10.3531 7.67848 10.4821 7.54948C10.6111 7.42048 10.6756 7.26063 10.6756 7.06992C10.6756 6.87922 10.6111 6.71937 10.4821 6.59036C10.3531 6.46136 10.1933 6.39685 10.0026 6.39685C9.81187 6.39685 9.65202 6.46136 9.52302 6.59036C9.39402 6.71937 9.32952 6.87922 9.32952 7.06992C9.32952 7.26063 9.39402 7.42048 9.52302 7.54948C9.65202 7.67848 9.81187 7.74298 10.0026 7.74298ZM10.004 17.9192C8.90903 17.9192 7.87984 17.7115 6.9164 17.2959C5.95294 16.8803 5.11487 16.3164 4.40219 15.604C3.68949 14.8916 3.12528 14.0539 2.70954 13.0909C2.29381 12.1279 2.08594 11.0989 2.08594 10.004C2.08594 8.90904 2.29372 7.87984 2.70927 6.9164C3.12483 5.95294 3.68878 5.11487 4.40115 4.40219C5.11352 3.68949 5.95122 3.12528 6.91425 2.70954C7.87726 2.29381 8.90624 2.08594 10.0012 2.08594C11.0961 2.08594 12.1253 2.29372 13.0888 2.70927C14.0522 3.12483 14.8903 3.68879 15.603 4.40115C16.3157 5.11352 16.8799 5.95122 17.2956 6.91425C17.7114 7.87726 17.9192 8.90624 17.9192 10.0012C17.9192 11.0961 17.7115 12.1253 17.2959 13.0888C16.8803 14.0522 16.3164 14.8903 15.604 15.603C14.8916 16.3157 14.0539 16.8799 13.0909 17.2956C12.1279 17.7114 11.0989 17.9192 10.004 17.9192ZM10.0026 16.6693C11.8637 16.6693 13.4401 16.0234 14.7318 14.7318C16.0234 13.4401 16.6693 11.8637 16.6693 10.0026C16.6693 8.14147 16.0234 6.56508 14.7318 5.27342C13.4401 3.98175 11.8637 3.33592 10.0026 3.33592C8.14147 3.33592 6.56508 3.98175 5.27342 5.27342C3.98175 6.56508 3.33592 8.14147 3.33592 10.0026C3.33592 11.8637 3.98175 13.4401 5.27342 14.7318C6.56508 16.0234 8.14147 16.6693 10.0026 16.6693Z" fill="#888F95"/>
</g>
</svg>
