<svg width="771" height="6" viewBox="0 0 771 6" fill="none" xmlns="http://www.w3.org/2000/svg">
<path d="M0.333333 3C0.333333 4.47276 1.52724 5.66667 3 5.66667C4.47276 5.66667 5.66667 4.47276 5.66667 3C5.66667 1.52724 4.47276 0.333333 3 0.333333C1.52724 0.333333 0.333333 1.52724 0.333333 3ZM765.541 3C765.541 4.47276 766.735 5.66667 768.208 5.66667C769.68 5.66667 770.874 4.47276 770.874 3C770.874 1.52724 769.68 0.333333 768.208 0.333333C766.735 0.333333 765.541 1.52724 765.541 3ZM3 3.5L768.208 3.5V2.5L3 2.5V3.5Z" fill="#DBDEE6"/>
</svg>
