<svg width="48" height="48" viewBox="0 0 48 48" fill="none" xmlns="http://www.w3.org/2000/svg">
<rect width="48" height="48" rx="16" fill="url(#paint0_linear_1090_294)"/>
<mask id="mask0_1090_294" style="mask-type:alpha" maskUnits="userSpaceOnUse" x="12" y="12" width="24" height="24">
<rect x="12" y="12" width="24" height="24" fill="#D9D9D9"/>
</mask>
<g mask="url(#mask0_1090_294)">
<path d="M18 33C17.4333 33 16.9583 32.8083 16.575 32.425C16.1917 32.0417 16 31.5667 16 31V29H19V15.375L20.275 16.275L21.575 15.375L22.875 16.275L24.2 15.375L25.5 16.275L26.8 15.375L28.125 16.275L29.425 15.375L30.725 16.275L32 15.375V31C32 31.5667 31.8083 32.0417 31.425 32.425C31.0417 32.8083 30.5667 33 30 33H18ZM30 32C30.2833 32 30.5207 31.904 30.712 31.712C30.904 31.5207 31 31.2833 31 31V17H20V29H29V31C29 31.2833 29.096 31.5207 29.288 31.712C29.4793 31.904 29.7167 32 30 32ZM21.375 20.5V19.5H26.725V20.5H21.375ZM21.375 23.5V22.5H26.725V23.5H21.375ZM28.875 20.775C28.675 20.775 28.5 20.6957 28.35 20.537C28.2 20.379 28.125 20.2 28.125 20C28.125 19.8 28.2 19.6207 28.35 19.462C28.5 19.304 28.675 19.225 28.875 19.225C29.0917 19.225 29.275 19.304 29.425 19.462C29.575 19.6207 29.65 19.8 29.65 20C29.65 20.2 29.575 20.379 29.425 20.537C29.275 20.6957 29.0917 20.775 28.875 20.775ZM28.875 23.775C28.675 23.775 28.5 23.6957 28.35 23.537C28.2 23.379 28.125 23.2 28.125 23C28.125 22.8 28.2 22.6207 28.35 22.462C28.5 22.304 28.675 22.225 28.875 22.225C29.0917 22.225 29.275 22.304 29.425 22.462C29.575 22.6207 29.65 22.8 29.65 23C29.65 23.2 29.575 23.379 29.425 23.537C29.275 23.6957 29.0917 23.775 28.875 23.775Z" fill="url(#paint1_linear_1090_294)"/>
</g>
<defs>
<linearGradient id="paint0_linear_1090_294" x1="1.5" y1="0.314453" x2="48" y2="46.8145" gradientUnits="userSpaceOnUse">
<stop stop-color="#DBDEE6"/>
<stop offset="1" stop-color="#F6F7F9"/>
</linearGradient>
<linearGradient id="paint1_linear_1090_294" x1="16.8" y1="15.375" x2="32.2687" y2="31.5158" gradientUnits="userSpaceOnUse">
<stop stop-color="#5C6670"/>
<stop offset="1" stop-color="#131316"/>
</linearGradient>
</defs>
</svg>
