<svg width="24" height="24" viewBox="0 0 24 24" fill="none" xmlns="http://www.w3.org/2000/svg">
<path d="M15.8412 4.92469V11.0247C15.8412 11.4147 15.5312 11.7247 15.1412 11.7247H9.98125C9.59125 11.7247 9.28125 11.4147 9.28125 11.0247V10.0547H4.98125C4.59125 10.0547 4.28125 9.74469 4.28125 9.35469V3.25469C4.28125 2.86469 4.59125 2.55469 4.98125 2.55469H10.1413C10.5313 2.55469 10.8413 2.86469 10.8413 3.25469V4.22469H15.1412C15.5212 4.22469 15.8412 4.54469 15.8412 4.92469Z" fill="url(#paint0_linear_1062_982)"/>
<path d="M11.59 14.1816H2.7C2.31 14.1816 2 13.8716 2 13.4816V6.55156C2 6.16156 2.31 5.85156 2.7 5.85156H11.59C11.98 5.85156 12.29 6.16156 12.29 6.55156V13.4816C12.29 13.8716 11.98 14.1816 11.59 14.1816Z" fill="url(#paint1_linear_1062_982)"/>
<path d="M21.3 21.4434H2.7C2.31 21.4434 2 21.1334 2 20.7434V8.47344C2 8.08344 2.31 7.77344 2.7 7.77344H21.3C21.69 7.77344 22 8.08344 22 8.47344V20.7434C22 21.1334 21.69 21.4434 21.3 21.4434Z" fill="url(#paint2_linear_1062_982)"/>
<defs>
<linearGradient id="paint0_linear_1062_982" x1="4.27646" y1="7.14214" x2="15.8375" y2="7.14214" gradientUnits="userSpaceOnUse">
<stop stop-color="#FCFF1C"/>
<stop offset="1" stop-color="#FF9D0A"/>
</linearGradient>
<linearGradient id="paint1_linear_1062_982" x1="2" y1="10.0189" x2="12.293" y2="10.0189" gradientUnits="userSpaceOnUse">
<stop stop-color="#E7CFFF"/>
<stop offset="1" stop-color="#870FFF"/>
</linearGradient>
<linearGradient id="paint2_linear_1062_982" x1="2" y1="14.6128" x2="22" y2="14.6128" gradientUnits="userSpaceOnUse">
<stop stop-color="#03FFE5"/>
<stop offset="1" stop-color="#14B348"/>
</linearGradient>
</defs>
</svg>
