<svg width="24" height="24" viewBox="0 0 24 24" fill="none" xmlns="http://www.w3.org/2000/svg">
<path d="M12.5078 12.9H8.50781C6.15781 12.9 4.25781 11 4.25781 8.65V8.25C4.25781 5.9 6.15781 4 8.50781 4H12.5078C14.8578 4 16.7578 5.9 16.7578 8.25V8.65C16.7578 10.99 14.8478 12.9 12.5078 12.9Z" stroke="url(#paint0_linear_1062_971)" stroke-width="2.7" stroke-miterlimit="10"/>
<path d="M16.7734 16.9H12.7734C10.4234 16.9 8.52344 15 8.52344 12.65V12.25C8.52344 9.9 10.4234 8 12.7734 8H16.7734C19.1234 8 21.0234 9.9 21.0234 12.25V12.65C21.0234 15 19.1234 16.9 16.7734 16.9Z" stroke="url(#paint1_linear_1062_971)" stroke-width="2.7" stroke-miterlimit="10"/>
<path d="M5.4575 18.5969L5.2075 18.9869C5.1475 19.0869 5.0275 19.1169 4.9375 19.0569L3.6575 18.2969C3.5575 18.2369 3.5275 18.1169 3.5875 18.0269L3.8375 17.6369C3.8975 17.5369 3.8675 17.4169 3.7675 17.3669L3.0975 16.9769C2.9675 16.8969 2.9675 16.7069 3.0975 16.6269L6.4375 14.7469C6.5775 14.6669 6.7375 14.7669 6.7375 14.9269L6.6975 18.7669C6.6975 18.9169 6.5275 19.0169 6.3975 18.9369L5.7275 18.5469C5.6475 18.4669 5.5175 18.5069 5.4575 18.5969Z" fill="url(#paint2_linear_1062_971)"/>
<defs>
<linearGradient id="paint0_linear_1062_971" x1="2.89867" y1="8.44539" x2="18.106" y2="8.44539" gradientUnits="userSpaceOnUse">
<stop stop-color="#870FFF"/>
<stop offset="1" stop-color="#E7CFFF"/>
</linearGradient>
<linearGradient id="paint1_linear_1062_971" x1="7.16525" y1="12.4546" x2="22.3726" y2="12.4546" gradientUnits="userSpaceOnUse">
<stop stop-color="#FFDDCD"/>
<stop offset="1" stop-color="#FF5403"/>
</linearGradient>
<linearGradient id="paint2_linear_1062_971" x1="3.66394" y1="15.6354" x2="7.30948" y2="17.8061" gradientUnits="userSpaceOnUse">
<stop stop-color="#FCFF1C"/>
<stop offset="1" stop-color="#FF9D0A"/>
</linearGradient>
</defs>
</svg>
